# xmcd CD database file
#
# Track frame offsets:
#	150
#	900
#	1650
#	2400
#	98223
#
# Disc length: 4440 seconds
#
# Revision: 1
# Processed by: cddbd v1.5.1PL2 Copyright (c) Steve Scherf et al.
# Submitted via: CDex 1.51
#
DISCID=1b115605
DTITLE=林 明日香 - 小さきもの
DYEAR=2003
DGENRE=JPop
TTITLE0=小さきもの Single mix
TTITLE1=燕になりたい
TTITLE2=我願做一只小燕
TTITLE3=DATA TRACK
TTITLE4=DATA TRACK
EXTD=YEAR: 2003
EXTT0=
EXTT1=
EXTT2=
EXTT3=
EXTT4=
PLAYORDER=
